<svg xmlns="http://www.w3.org/2000/svg" viewBox="0 0 512 512" style="height: 512px; width: 512px;"><defs><linearGradient x1="0" x2="1" y1="1" y2="0" id="lorc-anvil-impact-gradient-2"><stop offset="0%" stop-color="#eee92a" stop-opacity="1"></stop><stop offset="100%" stop-color="#d42517" stop-opacity="1"></stop></linearGradient><linearGradient x1="0" x2="1" y1="1" y2="0" id="lorc-anvil-impact-gradient-3"><stop offset="0%" stop-color="#b57204" stop-opacity="1"></stop><stop offset="100%" stop-color="#100902" stop-opacity="1"></stop></linearGradient><linearGradient x1="0" x2="0" y1="0" y2="1" id="lorc-anvil-impact-gradient-4"><stop offset="0%" stop-color="#9b9b9b" stop-opacity="1"></stop><stop offset="100%" stop-color="#4a4a4a" stop-opacity="1"></stop></linearGradient><radialGradient id="lorc-anvil-impact-gradient-7"><stop offset="0%" stop-color="#d24d24" stop-opacity="1"></stop><stop offset="100%" stop-color="#9a902a" stop-opacity="1"></stop></radialGradient></defs><circle cx="256" cy="256" r="256" fill="#d41e1e" fill-opacity="0.01"></circle><g class="" transform="translate(1,-3)" style=""><g><path d="M413.375 69.906L336.937 191.47L328.687 158.78L298.469 247.75L361.124 218.375L361.344 247.813L488.374 196.875L417.561 194.905L465.343 126.219L391.873 165.469L413.373 69.905Z" class="" fill="url(#lorc-anvil-impact-gradient-2)"></path><path d="M210.22 102.094L178.22 116.5L195.094 172.156L17.281 252.186L29.845 280.062L207.656 200L238.062 249.47L287.375 227.28L266.031 156.937L210.221 102.094Z" class="" fill="url(#lorc-anvil-impact-gradient-3)"></path><path d="M197.593 266.78L197.593 287.125L108.687 287.125C124.681 325.932 159.912 352.555 197.593 361.405L197.593 394.375L256.155 394.375C244.037 424.903 222.65 450.059 197.685 471.969L172.22 471.969L172.22 490.655L456.56 490.655L456.56 471.97L429.154 471.97C400.42 450.075 379.099 424.952 367.529 394.375L431.187 394.375L431.187 365.187C450.935 358.192 470.687 345.677 490.437 328.5C470.625 310.977 451.207 301.25 431.187 296.562L431.187 266.782L197.594 266.782Z" class="selected" fill="url(#lorc-anvil-impact-gradient-4)"></path></g></g></svg>