<svg xmlns="http://www.w3.org/2000/svg" viewBox="0 0 512 512" style="height: 512px; width: 512px;"><defs><linearGradient x1="0" x2="1" y1="1" y2="0" id="cathelineau-bad-gnome-gradient-2"><stop offset="0%" stop-color="#be2020" stop-opacity="1"></stop><stop offset="100%" stop-color="#4e0303" stop-opacity="1"></stop></linearGradient><linearGradient x1="0" x2="1" y1="0" y2="1" id="cathelineau-bad-gnome-gradient-3"><stop offset="0%" stop-color="#b57204" stop-opacity="1"></stop><stop offset="100%" stop-color="#8b572a" stop-opacity="1"></stop></linearGradient><linearGradient x1="0" x2="1" y1="0" y2="1" id="cathelineau-bad-gnome-gradient-4"><stop offset="0%" stop-color="#af3535" stop-opacity="1"></stop><stop offset="100%" stop-color="#650e0e" stop-opacity="1"></stop></linearGradient><linearGradient x1="0" x2="0" y1="0" y2="1" id="cathelineau-bad-gnome-gradient-5"><stop offset="0%" stop-color="#ffe0af" stop-opacity="1"></stop><stop offset="100%" stop-color="#f8e2bf" stop-opacity="1"></stop></linearGradient><linearGradient x1="0" x2="0" y1="0" y2="1" id="cathelineau-bad-gnome-gradient-6"><stop offset="0%" stop-color="#ffe0af" stop-opacity="1"></stop><stop offset="100%" stop-color="#fee9c6" stop-opacity="1"></stop></linearGradient><linearGradient x1="0" x2="0" y1="0" y2="1" id="cathelineau-bad-gnome-gradient-7"><stop offset="0%" stop-color="#fff" stop-opacity="1"></stop><stop offset="100%" stop-color="#e3e0e0" stop-opacity="0.51"></stop></linearGradient><linearGradient x1="0" x2="1" y1="0" y2="1" id="cathelineau-bad-gnome-gradient-8"><stop offset="0%" stop-color="#5a0606" stop-opacity="1"></stop><stop offset="100%" stop-color="#f41d1d" stop-opacity="1"></stop></linearGradient><linearGradient id="cathelineau-bad-gnome-gradient-9" x1="0" x2="0" y1="0" y2="1"><stop offset="0%" stop-color="#060000" stop-opacity="1"></stop><stop offset="100%" stop-color="#f11707" stop-opacity="1"></stop></linearGradient><linearGradient x1="0" x2="1" y1="1" y2="0" id="cathelineau-bad-gnome-gradient-10"><stop offset="0%" stop-color="#b57204" stop-opacity="1"></stop><stop offset="100%" stop-color="#8b572a" stop-opacity="1"></stop></linearGradient><linearGradient x1="0" x2="1" y1="1" y2="0" id="cathelineau-bad-gnome-gradient-11"><stop offset="0%" stop-color="#ef3131" stop-opacity="1"></stop><stop offset="100%" stop-color="#7d1515" stop-opacity="1"></stop></linearGradient><linearGradient x1="0" x2="1" y1="0" y2="1" id="cathelineau-bad-gnome-gradient-12"><stop offset="0%" stop-color="#7a2b2b" stop-opacity="1"></stop><stop offset="100%" stop-color="#e20707" stop-opacity="1"></stop></linearGradient><linearGradient x1="0" x2="1" y1="0" y2="1" id="cathelineau-bad-gnome-gradient-13"><stop offset="0%" stop-color="#0f0101" stop-opacity="1"></stop><stop offset="100%" stop-color="#b57204" stop-opacity="1"></stop></linearGradient><linearGradient x1="0" x2="1" y1="1" y2="0" id="cathelineau-bad-gnome-gradient-14"><stop offset="0%" stop-color="#e0961d" stop-opacity="1"></stop><stop offset="100%" stop-color="#1e0909" stop-opacity="1"></stop></linearGradient></defs><circle cx="256" cy="256" r="256" fill="#d41e1e" fill-opacity="0.01"></circle><g class="" transform="translate(0,0)" style=""><g><path d="M310.38 45.636C301.062 45.584 291.868 48.301 281.977 50.917C254.909 61.006 224.028 77.565 199.705 98.013C179.325 115.146 163.951 134.853 158.041 155.31C219.519 160.406 275.789 159.73 316.295 143.1C316.743 141.841 317.075 140.683 317.221 139.677C317.64 136.771 317.358 134.409 315.621 130.665C312.147 123.177 301.748 111.245 281.981 91.755L268.16 78.13C284.632 78.21 302.433 80.452 317.608 71.323C327.838 90.2 344.859 107.517 368.636 115.558L375.694 116.86L375.161 124.019C374.355 134.844 379.541 150.059 388.511 162.663C397.48 175.268 409.993 185.031 421.321 187.44C430.088 189.305 434.237 187.61 436.708 184.812C439.179 182.013 440.849 176.153 439.206 166.919C437.722 158.582 433.019 148.072 426.14 139.534C419.838 131.871 408.921 124.034 397.112 121.698C392.12 111.028 388.989 100.728 381.02 89.462C375.758 82.022 368.914 76.574 363.304 71.606C357.347 66.332 351.639 62.878 343.681 62.042L339.964 61.652C334.022 52.822 328.737 49.342 316.86 46.149C314.716 45.815 312.55 45.644 310.38 45.636Z" class="" fill="url(#cathelineau-bad-gnome-gradient-2)"></path><path d="M53.597 113.335L56.062 132.403L45.849 131.167C40.232 130.487 35.727 131.815 29.931 135.042C27.558 136.363 24.921 138.196 22.211 140.095C29.331 143.438 35.236 147.719 40.964 152.247L48.491 158.198L25.233 178.634C39.44 179.613 54.223 178.757 67.003 174.603L83.358 141.273C80.466 127.381 75.502 122.114 68.938 118.563C64.769 116.308 59.388 114.843 53.597 113.335Z" class="selected" fill="url(#cathelineau-bad-gnome-gradient-3)"></path><path d="M97.118 151.155L94.598 154.687L82.348 179.653C92.143 184.751 99.795 191.553 106.192 198.997C106.985 198.351 107.782 197.714 108.577 197.073L131.915 167.292C121.71 160.782 110.62 155.136 97.118 151.155Z" class="" fill="url(#cathelineau-bad-gnome-gradient-4)"></path><path d="M315.644 160.44C280.628 173.09 238.335 175.573 192.688 173.57L221.556 188.122C219.496 194.498 215.587 201.699 212.833 204.735C200.441 218.995 186.271 235.28 175.116 251.579C165.966 264.949 159.196 278.249 156.649 289.646C210.741 277.936 233.339 253.564 249.415 234.864C250.697 230.759 250.632 227.888 249.722 227.476C246.67 226.093 237.529 222.04 234.396 223.88C233.036 224.774 230.466 227.356 226.358 230.786L221.231 224.646L216.103 218.505C219.45 215.709 221.788 213.019 225.608 210.509C226.675 209.819 227.81 209.239 228.995 208.779C230.89 191.515 246.851 181.709 267.478 174.376C274.221 182.419 265.794 197.544 256.808 212.931C258.181 213.752 259.455 214.727 260.606 215.837C283.564 209.782 307.186 200.804 330.79 189.29Z" class="" fill="url(#cathelineau-bad-gnome-gradient-5)"></path><path d="M149.64 170.612L121.999 205.888C138.032 215.498 156.279 221.229 176.052 223.544C181.306 216.932 186.679 210.541 191.897 204.47C184.685 197.452 179.457 189.01 184.948 173.196C173.356 172.568 161.568 171.681 149.64 170.612Z" class="" fill="url(#cathelineau-bad-gnome-gradient-6)"></path><path d="M341.73 201.8C316.573 214.363 291.062 224.36 266.008 231.13C265.436 235.518 265.868 240.28 263.514 243.034C260.157 246.955 256.344 251.336 251.898 255.931C270.996 254.164 288.448 249.918 304.957 238.376L322.443 226.149L307.262 287.339L305.137 289.032C298.166 294.588 290.441 301.986 277.312 306.487C264.184 310.989 246.339 312.477 218.336 308.743C206.006 307.099 196.751 302.228 189.492 296.653C177.734 301.066 164.315 304.805 148.882 307.472L139.715 309.056L139.521 299.753C139.122 280.469 149.19 261.133 161.912 242.544C162.862 241.156 163.832 239.774 164.814 238.396C144.842 234.933 126.189 228.003 109.459 217.079C108.97 217.49 108.468 217.896 107.982 218.308C96.637 227.937 86.35 237.916 78.549 246.329C80.561 246.026 82.574 245.599 84.566 245.396C93.878 244.443 102.913 244.335 110.863 248.468L120.923 253.698L112.621 261.423C102.442 270.893 93.828 282.436 88.486 293.44C86.434 297.67 84.849 302.111 83.762 306.685C84.669 305.983 85.208 305.555 86.141 304.853C92.221 300.275 98.633 295.737 105.668 293.284L121.455 287.78L115.838 303.526C111.794 314.864 107.512 324.129 105.713 332.274C104.632 337.169 104.408 341.616 105.305 346.347L124.988 329.255L127.004 343.892C129.088 359.027 128.691 367.403 132.373 377.247L161.324 345.167L155.977 373.239C152.512 391.428 154.302 406.363 159.535 419.817L186.299 382.077L190.623 398.714C194.221 412.554 199.241 421.297 204.59 426.179C207.797 429.106 211.191 430.777 215.037 431.605C214.735 427.093 214.819 422.411 215.997 417.706C217.041 413.526 219.018 409.23 222.65 405.884C226.283 402.538 231.431 400.574 236.975 400.392C244.757 400.136 251.641 403.516 256.631 408.101C261.621 412.686 265.214 418.371 268.359 424.134C271.365 429.64 274.091 435.271 276.57 440.154C281.131 427.865 284.642 413.924 283.676 405.198L282.498 394.56L293.035 396.442C296.694 397.091 300.278 398.104 303.735 399.466C315.202 383.965 330.422 376.82 346.293 376.091C348.776 375.978 351.264 376.017 353.743 376.208L354.461 376.263L355.156 376.444C359.166 377.492 362.639 379.029 365.639 380.858C368.003 359.543 364.718 339.036 356.215 319.241L351.52 308.314L363.412 308.085C367.776 308.001 372.118 308.538 376.26 309.817C371.9 295.067 364.36 281.47 351.139 266.521L338.516 252.249L357.543 253.231C365.465 253.641 372.218 255.837 378.433 258.993C370.061 238.22 356.415 218.04 341.73 201.8Z" class="" fill="url(#cathelineau-bad-gnome-gradient-7)" stroke="#878787" stroke-opacity="0.14" stroke-width="1"></path><path d="M394.023 228.437C390.557 228.45 386.677 228.925 382.27 229.882C390.75 244.626 397.362 260.492 400.707 276.698L401.73 281.659C405.967 283.894 409.703 286.776 413.092 290.013C423.645 280.482 434.94 274.46 446.227 270.237C433.507 254.775 423.725 241.954 414.647 235.419C409.102 231.428 403.562 228.933 396.344 228.499C395.572 228.454 394.798 228.433 394.024 228.437Z" class="" fill="url(#cathelineau-bad-gnome-gradient-8)"></path><path d="M297.295 261.065C279.854 268.98 261.713 271.563 243.709 272.577C240.045 272.784 236.379 272.927 232.713 273.046C225.443 278.58 217.001 284.019 207.076 288.997C210.806 290.825 215.096 292.17 220.449 292.884C247.013 296.425 262.192 294.758 272.123 291.353C281.07 288.285 286.433 283.581 293.045 278.194Z" class="" fill="url(#cathelineau-bad-gnome-gradient-9)"></path><path d="M461.508 282.101C446.793 286.376 433.316 292.228 420.77 304.788C415.968 311.372 414.382 322.743 416.084 334.698C416.886 340.332 418.438 345.97 420.318 351.12C421.021 349.216 421.678 347.393 422.414 345.483C425.577 337.269 428.154 329.508 434.631 323.925L441.857 317.696L457.359 343.769C462.969 336.145 465.474 328.386 464.389 319.708L462.492 304.54L489.789 318.825C488.251 313.233 486.571 307.743 484.279 302.812C479.736 293.036 473.746 285.715 461.508 282.101Z" class="" fill="url(#cathelineau-bad-gnome-gradient-10)"></path><path d="M117.619 383.3C117.046 383.542 116.447 383.805 115.803 384.114C111.805 386.031 106.739 389.131 102.119 392.929C94.373 399.297 88.6 407.059 87.869 414.529C98.512 419.874 111.469 421.103 127.669 417.565L139.641 406.782C138.98 402.691 138.574 398.563 138.428 394.421L129.094 404.765L123.539 395.474C120.957 391.154 119.059 387.148 117.619 383.3Z" class="" fill="url(#cathelineau-bad-gnome-gradient-11)"></path><path d="M346.852 391.983C336.757 392.175 328.305 395.503 320.518 404.163C327.255 407.483 332.778 412.414 336.232 418.796L368.301 408.972C366.359 405.49 364.873 402.364 363.166 399.952C360.622 396.357 358.056 393.912 351.74 392.136C350.075 392.028 348.433 391.953 346.852 391.983Z" class="" fill="url(#cathelineau-bad-gnome-gradient-12)"></path><path d="M379.482 422.283L339.924 434.399L340.68 450.253C360.791 461.064 375.051 463.177 386.354 462.226C395.621 461.446 403.188 458.526 410.836 455.746C408.964 450.774 405.041 445.602 399.434 440.079C393.614 434.348 386.393 428.551 379.482 422.282Z" class="" fill="url(#cathelineau-bad-gnome-gradient-13)"></path><path d="M80.146 428.558C63.706 433.253 56.551 438.358 51.223 444.007C47.619 447.827 44.619 452.503 40.686 457.64C52.103 462.121 64.88 465.532 77.059 466.228C92.026 467.082 105.553 464.028 115.977 454.909L120.482 434.935C105.536 436.595 91.922 434.585 80.146 428.558Z" class="" fill="url(#cathelineau-bad-gnome-gradient-14)"></path></g></g></svg>