<svg xmlns="http://www.w3.org/2000/svg" viewBox="0 0 512 512" style="height: 512px; width: 512px;"><defs><filter id="shadow-1" height="300%" width="300%" x="-100%" y="-100%"><feFlood flood-color="rgba(12, 145, 241, 1)" result="flood"></feFlood><feComposite in="flood" in2="SourceGraphic" operator="atop" result="composite"></feComposite><feGaussianBlur in="composite" stdDeviation="2" result="blur"></feGaussianBlur><feOffset dx="0" dy="0" result="offset"></feOffset><feComposite in="SourceGraphic" in2="offset" operator="over"></feComposite></filter><filter id="shadow-10" height="300%" width="300%" x="-100%" y="-100%"><feFlood flood-color="rgba(12, 145, 241, 1)" result="flood"></feFlood><feComposite in="flood" in2="SourceGraphic" operator="atop" result="composite"></feComposite><feGaussianBlur in="composite" stdDeviation="2" result="blur"></feGaussianBlur><feOffset dx="0" dy="0" result="offset"></feOffset><feComposite in="SourceGraphic" in2="offset" operator="over"></feComposite></filter><linearGradient x1="0" x2="0" y1="0" y2="1" id="delapouite-bed-gradient-1"><stop offset="0%" stop-color="#8b572a" stop-opacity="1"></stop><stop offset="100%" stop-color="#b57204" stop-opacity="1"></stop></linearGradient><linearGradient x1="0" x2="0" y1="0" y2="1" id="delapouite-bed-gradient-2"><stop offset="0%" stop-color="#47260b" stop-opacity="1"></stop><stop offset="100%" stop-color="#8b572a" stop-opacity="1"></stop></linearGradient><linearGradient id="delapouite-bed-gradient-3"><stop offset="0%" stop-color="#ffffff" stop-opacity="1"></stop><stop offset="100%" stop-color="#e3e0e0" stop-opacity="1"></stop></linearGradient><linearGradient id="delapouite-bed-gradient-4"><stop offset="0%" stop-color="#ffffff" stop-opacity="1"></stop><stop offset="100%" stop-color="#e5e5e3" stop-opacity="1"></stop></linearGradient><linearGradient x1="0" x2="1" y1="0" y2="1" id="delapouite-bed-gradient-5"><stop offset="0%" stop-color="#ffffff" stop-opacity="1"></stop><stop offset="100%" stop-color="#e3e3e3" stop-opacity="1"></stop></linearGradient><linearGradient x1="0" x2="1" y1="0" y2="1" id="delapouite-bed-gradient-6"><stop offset="0%" stop-color="#ffffff" stop-opacity="1"></stop><stop offset="100%" stop-color="#e8e8e7" stop-opacity="1"></stop></linearGradient><linearGradient x1="0" x2="1" y1="1" y2="0" id="delapouite-bed-gradient-7"><stop offset="0%" stop-color="#8b572a" stop-opacity="1"></stop><stop offset="100%" stop-color="#704520" stop-opacity="1"></stop></linearGradient><linearGradient x1="0" x2="1" y1="0" y2="1" id="delapouite-bed-gradient-8"><stop offset="0%" stop-color="#8b572a" stop-opacity="1"></stop><stop offset="100%" stop-color="#000000" stop-opacity="1"></stop></linearGradient><linearGradient id="delapouite-bed-gradient-9"><stop offset="0%" stop-color="#000000" stop-opacity="1"></stop><stop offset="100%" stop-color="#bc6418" stop-opacity="1"></stop></linearGradient><linearGradient id="delapouite-bed-gradient-10"><stop offset="0%" stop-color="#5f3b1b" stop-opacity="1"></stop><stop offset="100%" stop-color="#b57204" stop-opacity="1"></stop></linearGradient></defs><circle cx="256" cy="256" r="256" fill="#d41e1e" fill-opacity="0.01"></circle><g class="" transform="translate(9,1)" style=""><g transform="translate(51.2, 51.2) scale(0.8, 0.8) rotate(0, 256, 256) skewX(0) skewY(0)"><path d="M239.802 74.44L239.802 74.63L252.077 74.63L252.077 104.063L252.081 104.063L252.081 135.328C248.755 134.766 245.383 134.408 241.986 134.244C215.186 132.951 186.953 142.982 168.756 147.604L161.211 149.524L161.793 155.088C161.333 154.912 160.876 154.732 160.406 154.563L159.701 154.307L158.961 154.172C154.864 153.425 150.691 152.979 146.481 152.782C117.004 151.41 85.647 162.245 65.307 167.305L57.695 169.197L58.531 176.997C59.136 182.641 59.749 188.587 61.305 194.49C50.663 207.562 51.227 212.84 52.888 221.674L264.028 295.59L264.028 369.643C184.03 336.45 106.252 295.828 25.582 264.49L25.582 94.49L43.582 94.49L43.582 94.615L55.956 94.615L55.956 129.385L221.804 107.971L221.804 74.44Z" class="" fill="url(#delapouite-bed-gradient-2)"></path><path d="M237.714 152.285C238.917 152.272 240.104 152.285 241.278 152.325C244.096 152.42 246.783 152.721 249.368 153.165C262.916 158.362 269.664 165.802 273.618 174.627C250.363 184.271 229.444 188.134 211.103 190.363C205.826 189.213 201.6 187.897 198.159 186.469C194.357 179.171 188.976 172.225 181.637 166.309C181.427 165.229 181.232 164.123 181.053 162.979C198.467 158.349 219.667 152.475 237.713 152.284Z" class="" fill="url(#delapouite-bed-gradient-3)"></path><path d="M143.364 170.813C144.744 170.799 146.107 170.813 147.454 170.859C150.672 170.969 153.75 171.305 156.714 171.809C172.471 177.699 180.26 186.244 184.716 196.335C158.276 207.185 134.496 211.497 113.751 213.955C96.331 210.263 88.635 204.965 84.581 199.29C81.509 194.988 80.057 189.537 79.051 182.772C98.546 177.695 122.671 171.019 143.365 170.812Z" class="" fill="url(#delapouite-bed-gradient-4)"></path><path d="M291.8 186.295L318.206 193.748C259.012 204.158 193.111 222.48 153.026 239.514L125.583 230.344C146.818 227.198 171.368 221.591 198.151 209.498L203.441 207.108C205.161 207.548 206.941 207.961 208.791 208.34L210.211 208.63L211.651 208.46C233.213 205.92 259.556 201.166 288.801 187.678Z" class="" fill="url(#delapouite-bed-gradient-5)"></path><path d="M360.597 205.713L411.933 220.203L264.028 258.58L264.028 276.18L181.511 249.033L179.741 248.443C228.917 230.726 304.179 212.14 360.598 205.713Z" class="" fill="url(#delapouite-bed-gradient-6)"></path><path d="M488.387 219.393L488.387 309.963L283.69 372.127L283.69 272.507Z" class="" fill="url(#delapouite-bed-gradient-7)"></path><path d="M23.613 282.45L60.837 299L60.837 313.674L39.98 322.13L23.614 311.56Z" class="" fill="url(#delapouite-bed-gradient-8)"></path><path d="M486.873 331.693L486.873 366.688L464.963 376.203L448.596 368.803L448.596 343.316Z" class="selected" fill="url(#delapouite-bed-gradient-9)"></path><path d="M252.42 384.183L264.028 389.343L273.47 393.539L292.812 386.669L292.812 427.517L270.108 437.56L252.421 424.875Z" class="" fill="url(#delapouite-bed-gradient-10)" filter="url(#shadow-10)"></path></g></g></svg>