<svg xmlns="http://www.w3.org/2000/svg" viewBox="0 0 512 512" style="height: 512px; width: 512px;"><defs><filter id="shadow-1" height="300%" width="300%" x="-100%" y="-100%"><feFlood flood-color="rgba(12, 145, 241, 1)" result="flood"></feFlood><feComposite in="flood" in2="SourceGraphic" operator="atop" result="composite"></feComposite><feGaussianBlur in="composite" stdDeviation="2" result="blur"></feGaussianBlur><feOffset dx="0" dy="0" result="offset"></feOffset><feComposite in="SourceGraphic" in2="offset" operator="over"></feComposite></filter><filter id="shadow-10" height="300%" width="300%" x="-100%" y="-100%"><feFlood flood-color="rgba(12, 145, 241, 1)" result="flood"></feFlood><feComposite in="flood" in2="SourceGraphic" operator="atop" result="composite"></feComposite><feGaussianBlur in="composite" stdDeviation="2" result="blur"></feGaussianBlur><feOffset dx="0" dy="0" result="offset"></feOffset><feComposite in="SourceGraphic" in2="offset" operator="over"></feComposite></filter><filter id="shadow-11" height="300%" width="300%" x="-100%" y="-100%"><feFlood flood-color="rgba(12, 145, 241, 1)" result="flood"></feFlood><feComposite in="flood" in2="SourceGraphic" operator="atop" result="composite"></feComposite><feGaussianBlur in="composite" stdDeviation="2" result="blur"></feGaussianBlur><feOffset dx="0" dy="0" result="offset"></feOffset><feComposite in="SourceGraphic" in2="offset" operator="over"></feComposite></filter><filter id="shadow-12" height="300%" width="300%" x="-100%" y="-100%"><feFlood flood-color="rgba(12, 145, 241, 1)" result="flood"></feFlood><feComposite in="flood" in2="SourceGraphic" operator="atop" result="composite"></feComposite><feGaussianBlur in="composite" stdDeviation="2" result="blur"></feGaussianBlur><feOffset dx="0" dy="0" result="offset"></feOffset><feComposite in="SourceGraphic" in2="offset" operator="over"></feComposite></filter><filter id="shadow-13" height="300%" width="300%" x="-100%" y="-100%"><feFlood flood-color="rgba(12, 145, 241, 1)" result="flood"></feFlood><feComposite in="flood" in2="SourceGraphic" operator="atop" result="composite"></feComposite><feGaussianBlur in="composite" stdDeviation="2" result="blur"></feGaussianBlur><feOffset dx="0" dy="0" result="offset"></feOffset><feComposite in="SourceGraphic" in2="offset" operator="over"></feComposite></filter><filter id="shadow-14" height="300%" width="300%" x="-100%" y="-100%"><feFlood flood-color="rgba(12, 145, 241, 1)" result="flood"></feFlood><feComposite in="flood" in2="SourceGraphic" operator="atop" result="composite"></feComposite><feGaussianBlur in="composite" stdDeviation="2" result="blur"></feGaussianBlur><feOffset dx="0" dy="0" result="offset"></feOffset><feComposite in="SourceGraphic" in2="offset" operator="over"></feComposite></filter><linearGradient x1="0" x2="0" y1="0" y2="1" id="delapouite-book-cover-gradient-1"><stop offset="0%" stop-color="#000000" stop-opacity="1"></stop><stop offset="100%" stop-color="#9b9b9b" stop-opacity="1"></stop></linearGradient><linearGradient x1="0" x2="0" y1="0" y2="1" id="delapouite-book-cover-gradient-2"><stop offset="0%" stop-color="#ffffff" stop-opacity="1"></stop><stop offset="100%" stop-color="#e2e2e2" stop-opacity="1"></stop></linearGradient><linearGradient x1="0" x2="0" y1="0" y2="1" id="delapouite-book-cover-gradient-3"><stop offset="0%" stop-color="#ffffff" stop-opacity="1"></stop><stop offset="100%" stop-color="#dbdbdb" stop-opacity="1"></stop></linearGradient><linearGradient x1="0" x2="0" y1="0" y2="1" id="delapouite-book-cover-gradient-4"><stop offset="0%" stop-color="#47260b" stop-opacity="1"></stop><stop offset="100%" stop-color="#a96a34" stop-opacity="1"></stop></linearGradient><linearGradient x1="0" x2="0" y1="0" y2="1" id="delapouite-book-cover-gradient-5"><stop offset="0%" stop-color="#47260b" stop-opacity="1"></stop><stop offset="100%" stop-color="#a96a34" stop-opacity="1"></stop></linearGradient><linearGradient x1="0" x2="0" y1="0" y2="1" id="delapouite-book-cover-gradient-6"><stop offset="0%" stop-color="#47260b" stop-opacity="1"></stop><stop offset="100%" stop-color="#a96a34" stop-opacity="1"></stop></linearGradient><radialGradient id="delapouite-book-cover-gradient-7"><stop offset="0%" stop-color="#f8e71c" stop-opacity="1"></stop><stop offset="100%" stop-color="#cabd22" stop-opacity="1"></stop></radialGradient><linearGradient x1="0" x2="1" y1="0" y2="1" id="delapouite-book-cover-gradient-8"><stop offset="0%" stop-color="#8b572a" stop-opacity="1"></stop><stop offset="100%" stop-color="#000000" stop-opacity="1"></stop></linearGradient><linearGradient id="delapouite-book-cover-gradient-10"><stop offset="0%" stop-color="#5f3b1b" stop-opacity="1"></stop><stop offset="100%" stop-color="#b57204" stop-opacity="1"></stop></linearGradient><linearGradient x1="0" x2="0" y1="0" y2="1" id="delapouite-book-cover-gradient-11"><stop offset="0%" stop-color="#8b572a" stop-opacity="1"></stop><stop offset="100%" stop-color="#b57204" stop-opacity="1"></stop></linearGradient><linearGradient x1="0" x2="0" y1="0" y2="1" id="delapouite-book-cover-gradient-12"><stop offset="0%" stop-color="#8b572a" stop-opacity="1"></stop><stop offset="100%" stop-color="#b57204" stop-opacity="1"></stop></linearGradient><linearGradient x1="0" x2="0" y1="0" y2="1" id="delapouite-book-cover-gradient-13"><stop offset="0%" stop-color="#8b572a" stop-opacity="1"></stop><stop offset="100%" stop-color="#b57204" stop-opacity="1"></stop></linearGradient><linearGradient x1="0" x2="0" y1="0" y2="1" id="delapouite-book-cover-gradient-14"><stop offset="0%" stop-color="#8b572a" stop-opacity="1"></stop><stop offset="100%" stop-color="#b57204" stop-opacity="1"></stop></linearGradient></defs><circle cx="256" cy="256" r="256" fill="#d41e1e" fill-opacity="0.01"></circle><g class="" transform="translate(9,1)" style=""><g transform="translate(51.2, 51.2) scale(0.8, 0.8) rotate(0, 256, 256) skewX(0) skewY(0)"><path d="M196.73 35.23C188.598 36.108 180.43 37.166 172.215 38.402C192.968 50.21 212.045 66.795 224 96C199.104 73.488 179.768 56.5 148.205 42.488C139.397 44.164 130.515 46.05 121.549 48.128C144.239 58.873 170.575 74.222 196.663 99.434C139.207 73.98 114.871 68.368 76.433 60.034C64.33 63.598 52.03 67.5 39.5 71.743C94.313 75.275 142.627 91.387 226.846 119.46L228.861 120.133L230.364 121.637C236.158 127.43 245.72 130.891 255.567 130.99C252.842 91.56 236.78 63.188 196.731 35.23Z" class="" fill="url(#delapouite-book-cover-gradient-2)"></path><path d="M315.27 35.23C275.22 63.188 259.16 91.56 256.434 130.99C266.281 130.89 275.844 127.43 281.637 121.637L283.139 120.133L285.153 119.461C369.374 91.39 417.687 75.277 472.5 71.745C459.97 67.502 447.67 63.6 435.566 60.035C397.128 68.369 372.792 73.981 315.336 99.435C341.424 74.223 367.76 58.875 390.451 48.128C381.487 46.051 372.604 44.165 363.796 42.488C332.233 56.502 312.896 73.488 288.001 96.001C299.955 66.796 319.033 50.211 339.786 38.403C331.57 37.167 323.403 36.109 315.271 35.231Z" class="selected" fill="url(#delapouite-book-cover-gradient-3)"></path><path d="M25 89.287L25 391.045C69.68 391.235 131.01 407.858 215 435.543L215 134.503C128.034 105.534 81.67 90.71 25 89.288Z" class="" fill="url(#delapouite-book-cover-gradient-4)"></path><path d="M487 89.287C430.33 90.71 383.966 105.533 297 134.504L297 435.554C381.317 407.856 440.413 393.054 487 391.354L487 89.287Z" class="" fill="url(#delapouite-book-cover-gradient-5)"></path><path d="M233 144.482L233 344.807C248.47 347.907 263.71 348.099 279 344.904L279 144.482C271.773 147.54 263.86 149 256 149C248.14 149 240.227 147.54 233 144.482Z" class="" fill="url(#delapouite-book-cover-gradient-6)"></path><path d="M233 363.109L233 377.042C248.296 380.53 263.512 380.326 279 376.942L279 363.22C263.63 365.948 248.236 365.763 233 363.11Z" class="" fill="url(#delapouite-book-cover-gradient-7)"></path><path d="M279 395.294C263.774 398.15 248.367 398.352 233 395.419L233 444.257C236.222 447.497 238.775 450.133 241.365 451.817C244.648 453.953 248.135 455.307 255.639 455.007L255.819 454.999L255.999 454.999C267.609 454.999 271.953 450.959 278.999 444.163L278.999 395.293Z" class="" fill="url(#delapouite-book-cover-gradient-8)"></path></g></g></svg>