<svg xmlns="http://www.w3.org/2000/svg" viewBox="0 0 512 512" style="height: 512px; width: 512px;"><defs><linearGradient x1="0" x2="1" y1="1" y2="0" id="willdabeast-black-book-gradient-1"><stop offset="0%" stop-color="#5a3517" stop-opacity="1"></stop><stop offset="100%" stop-color="#9e6c42" stop-opacity="1"></stop></linearGradient><linearGradient x1="0" x2="1" y1="1" y2="0" id="willdabeast-black-book-gradient-3"><stop offset="0%" stop-color="#734c2b" stop-opacity="1"></stop><stop offset="100%" stop-color="#715740" stop-opacity="1"></stop></linearGradient><linearGradient x1="0" x2="1" y1="0" y2="1" id="willdabeast-black-book-gradient-4"><stop offset="0%" stop-color="#b5b1ac" stop-opacity="1"></stop><stop offset="100%" stop-color="#dbd8d6" stop-opacity="1"></stop></linearGradient><linearGradient x1="0" x2="1" y1="1" y2="0" id="willdabeast-black-book-gradient-5"><stop offset="0%" stop-color="#8b572a" stop-opacity="1"></stop><stop offset="100%" stop-color="#4b2f17" stop-opacity="1"></stop></linearGradient><linearGradient x1="0" x2="1" y1="1" y2="0" id="willdabeast-black-book-gradient-6"><stop offset="0%" stop-color="#8b572a" stop-opacity="1"></stop><stop offset="100%" stop-color="#4b2f17" stop-opacity="1"></stop></linearGradient><linearGradient id="willdabeast-black-book-gradient-7"><stop offset="0%" stop-color="#f9f7f4" stop-opacity="1"></stop><stop offset="100%" stop-color="#cbc4be" stop-opacity="1"></stop></linearGradient><linearGradient x1="0" x2="1" y1="0" y2="1" id="willdabeast-black-book-gradient-8"><stop offset="0%" stop-color="#8b572a" stop-opacity="1"></stop><stop offset="100%" stop-color="#4b2f17" stop-opacity="1"></stop></linearGradient><linearGradient x1="0" x2="1" y1="0" y2="1" id="willdabeast-black-book-gradient-9"><stop offset="0%" stop-color="#8b572a" stop-opacity="1"></stop><stop offset="100%" stop-color="#4b2f17" stop-opacity="1"></stop></linearGradient></defs><path d="M0 0h512v512H0z" fill="#d41e1e" fill-opacity="0.01"></path><g class="" transform="translate(1,25)" style=""><g transform="translate(51.2, 51.2) scale(0.8, 0.8) rotate(0, 256, 256) skewX(0) skewY(0)"><path d="M102.594 25.97L192.656 371.75L481.844 395L391.75 49.22L102.594 25.97Z" class="selected" fill="#654526" fill-opacity="1"></path><path d="M83.688 27.563C53.222 39.436 28.008 80.661 33.938 102.875L37.188 114.655C37.855 112.895 38.548 111.133 39.281 109.375C49.19 85.668 65.84 62.61 89.657 50.47L83.687 27.563Z" class="" fill="url(#willdabeast-black-book-gradient-3)"></path><path d="M128.625 46.469L376.438 68.062L457.375 373.218L208.031 353.154L128.626 46.47Z" class="" fill="url(#willdabeast-black-book-gradient-4)"></path><path d="M94.53 69.155C77.87 79.165 64.614 97.223 56.53 116.561C51.285 129.113 48.493 142.201 47.78 153.093L112.594 388.373C112.887 387.823 113.166 387.268 113.469 386.718C124.069 367.464 141.291 349.022 164.593 338.248L94.53 69.156Z" class="" fill="url(#willdabeast-black-book-gradient-5)"></path><path d="M169.406 356.718C151.733 365.785 138.262 380.43 129.844 395.718C125.38 403.823 122.582 412.078 121.156 419.468L132.844 461.873L134.469 461.998C130.644 434.47 145.851 401.552 175.719 380.968L169.405 356.718Z" class="" fill="url(#willdabeast-black-book-gradient-6)"></path><path d="M195.75 390.748C163.198 408.008 149.26 443.15 153.906 463.654L443.75 488.184C438.435 480.434 435.113 470.344 435.156 459.842L412.594 450.779L459.219 443.469L445.624 430.499C451.229 423.592 459.312 417.474 470.404 412.843L195.75 390.75Z" class="" fill="url(#willdabeast-black-book-gradient-7)"></path></g></g></svg>