<svg xmlns="http://www.w3.org/2000/svg" viewBox="0 0 512 512" style="height: 512px; width: 512px;"><defs><filter id="shadow-2" height="300%" width="300%" x="-100%" y="-100%"><feFlood flood-color="rgba(10, 183, 254, 1)" result="flood"></feFlood><feComposite in="flood" in2="SourceGraphic" operator="atop" result="composite"></feComposite><feGaussianBlur in="composite" stdDeviation="20" result="blur"></feGaussianBlur><feOffset dx="0" dy="0" result="offset"></feOffset><feComposite in="SourceGraphic" in2="offset" operator="over"></feComposite></filter><filter id="shadow-3" height="300%" width="300%" x="-100%" y="-100%"><feFlood flood-color="rgba(127, 137, 242, 1)" result="flood"></feFlood><feComposite in="flood" in2="SourceGraphic" operator="atop" result="composite"></feComposite><feGaussianBlur in="composite" stdDeviation="22" result="blur"></feGaussianBlur><feOffset dx="8" dy="-10" result="offset"></feOffset><feComposite in="SourceGraphic" in2="offset" operator="over"></feComposite></filter><filter id="shadow-4" height="300%" width="300%" x="-100%" y="-100%"><feFlood flood-color="rgba(72, 186, 255, 1)" result="flood"></feFlood><feComposite in="flood" in2="SourceGraphic" operator="atop" result="composite"></feComposite><feGaussianBlur in="composite" stdDeviation="20" result="blur"></feGaussianBlur><feOffset dx="0" dy="0" result="offset"></feOffset><feComposite in="SourceGraphic" in2="offset" operator="over"></feComposite></filter><filter id="shadow-11" height="300%" width="300%" x="-100%" y="-100%"><feFlood flood-color="rgba(117, 139, 252, 1)" result="flood"></feFlood><feComposite in="flood" in2="SourceGraphic" operator="atop" result="composite"></feComposite><feGaussianBlur in="composite" stdDeviation="22" result="blur"></feGaussianBlur><feOffset dx="-6" dy="-6" result="offset"></feOffset><feComposite in="SourceGraphic" in2="offset" operator="over"></feComposite></filter><filter id="shadow-15" height="300%" width="300%" x="-100%" y="-100%"><feFlood flood-color="rgba(29, 61, 232, 1)" result="flood"></feFlood><feComposite in="flood" in2="SourceGraphic" operator="atop" result="composite"></feComposite><feGaussianBlur in="composite" stdDeviation="15" result="blur"></feGaussianBlur><feOffset dx="0" dy="0" result="offset"></feOffset><feComposite in="SourceGraphic" in2="offset" operator="over"></feComposite></filter><radialGradient id="delapouite-crystal-shrine-gradient-2"><stop offset="0%" stop-color="#fff" stop-opacity="1"></stop><stop offset="100%" stop-color="#0878ff" stop-opacity="1"></stop></radialGradient><linearGradient x1="0" x2="1" y1="1" y2="0" id="delapouite-crystal-shrine-gradient-3"><stop offset="0%" stop-color="#48baff" stop-opacity="1"></stop><stop offset="100%" stop-color="#fff" stop-opacity="1"></stop></linearGradient><radialGradient id="delapouite-crystal-shrine-gradient-4"><stop offset="0%" stop-color="#fff" stop-opacity="1"></stop><stop offset="100%" stop-color="#063ffe" stop-opacity="1"></stop></radialGradient><linearGradient x1="0" x2="1" y1="1" y2="0" id="delapouite-crystal-shrine-gradient-5"><stop offset="0%" stop-color="#4a90e2" stop-opacity="1"></stop><stop offset="100%" stop-color="#ffffff" stop-opacity="1"></stop></linearGradient><linearGradient x1="0" x2="1" y1="0" y2="1" id="delapouite-crystal-shrine-gradient-6"><stop offset="0%" stop-color="#4a90e2" stop-opacity="1"></stop><stop offset="100%" stop-color="#fff" stop-opacity="1"></stop></linearGradient><linearGradient x1="0" x2="1" y1="0" y2="1" id="delapouite-crystal-shrine-gradient-7"><stop offset="0%" stop-color="#ffffff" stop-opacity="1"></stop><stop offset="100%" stop-color="#4a90e2" stop-opacity="1"></stop></linearGradient><linearGradient x1="0" x2="1" y1="1" y2="0" id="delapouite-crystal-shrine-gradient-8"><stop offset="0%" stop-color="#5394e0" stop-opacity="1"></stop><stop offset="100%" stop-color="#4a90e2" stop-opacity="1"></stop></linearGradient><linearGradient x1="0" x2="1" y1="0" y2="1" id="delapouite-crystal-shrine-gradient-9"><stop offset="0%" stop-color="#4a90e2" stop-opacity="1"></stop><stop offset="100%" stop-color="#7cb5f6" stop-opacity="1"></stop></linearGradient><radialGradient id="delapouite-crystal-shrine-gradient-10"><stop offset="0%" stop-color="#ffffff" stop-opacity="1"></stop><stop offset="100%" stop-color="#4a90e2" stop-opacity="1"></stop></radialGradient><linearGradient x1="0" x2="1" y1="1" y2="0" id="delapouite-crystal-shrine-gradient-11"><stop offset="0%" stop-color="#4a90e2" stop-opacity="1"></stop><stop offset="100%" stop-color="#fff" stop-opacity="1"></stop></linearGradient><linearGradient x1="0" x2="1" y1="0" y2="1" id="delapouite-crystal-shrine-gradient-12"><stop offset="0%" stop-color="#4a90e2" stop-opacity="1"></stop><stop offset="100%" stop-color="#a1b7d1" stop-opacity="1"></stop></linearGradient><linearGradient x1="0" x2="1" y1="1" y2="0" id="delapouite-crystal-shrine-gradient-13"><stop offset="0%" stop-color="#4a90e2" stop-opacity="1"></stop><stop offset="100%" stop-color="#ffffff" stop-opacity="1"></stop></linearGradient><linearGradient x1="0" x2="1" y1="1" y2="0" id="delapouite-crystal-shrine-gradient-14"><stop offset="0%" stop-color="#4a90e2" stop-opacity="1"></stop><stop offset="100%" stop-color="#4a90e2" stop-opacity="1"></stop></linearGradient><radialGradient id="delapouite-crystal-shrine-gradient-15"><stop offset="0%" stop-color="#fff" stop-opacity="1"></stop><stop offset="100%" stop-color="#0a75f3" stop-opacity="1"></stop></radialGradient><linearGradient id="delapouite-crystal-shrine-gradient-16" x1="0" x2="0" y1="0" y2="1"><stop offset="0%" stop-color="#a6a5a5" stop-opacity="1"></stop><stop offset="100%" stop-color="#000000" stop-opacity="1"></stop></linearGradient><linearGradient x1="0" x2="0" y1="0" y2="1" id="delapouite-crystal-shrine-gradient-17"><stop offset="0%" stop-color="#000000" stop-opacity="1"></stop><stop offset="100%" stop-color="#c9c9c9" stop-opacity="1"></stop></linearGradient><linearGradient x1="0" x2="0" y1="0" y2="1" id="delapouite-crystal-shrine-gradient-18"><stop offset="0%" stop-color="#000000" stop-opacity="1"></stop><stop offset="100%" stop-color="#9b9b9b" stop-opacity="1"></stop></linearGradient><linearGradient x1="0" x2="0" y1="0" y2="1" id="delapouite-crystal-shrine-gradient-19"><stop offset="0%" stop-color="#000000" stop-opacity="1"></stop><stop offset="100%" stop-color="#9b9b9b" stop-opacity="1"></stop></linearGradient><linearGradient x1="0" x2="0" y1="0" y2="1" id="delapouite-crystal-shrine-gradient-20"><stop offset="0%" stop-color="#9b9b9b" stop-opacity="1"></stop><stop offset="100%" stop-color="#c9c9c9" stop-opacity="1"></stop></linearGradient></defs><circle cx="256" cy="256" r="256" fill="#d41e1e" fill-opacity="0.01"></circle><g class="" transform="translate(0,0)" style=""><g><path d="M116.215 17.404C116.215 33.404 100.215 49.404 84.215 49.404C100.215 49.404 116.215 65.404 116.215 81.404C116.215 65.404 132.215 49.404 148.215 49.404C132.215 49.404 116.215 33.404 116.215 17.404Z" class="" fill="url(#delapouite-crystal-shrine-gradient-2)" filter="url(#shadow-2)"></path><path d="M180.541 30.274L157.053 122.336L221.018 122.336L248.508 94.846L180.541 30.273Z" class="" fill="url(#delapouite-crystal-shrine-gradient-3)" filter="url(#shadow-3)"></path><path d="M408.688 56.232C408.688 76.446 388.472 96.66 368.258 96.66C388.472 96.66 408.688 116.874 408.688 137.088C408.688 116.874 428.901 96.66 449.115 96.66C428.901 96.66 408.687 76.446 408.687 56.232Z" class="" fill="url(#delapouite-crystal-shrine-gradient-4)" filter="url(#shadow-4)"></path><path d="M258.666 110.145L235.486 133.325L283.043 311L312.109 311L258.666 110.145Z" class="" fill="url(#delapouite-crystal-shrine-gradient-5)"></path><path d="M333.898 112.51L350.021 144.791L395.209 177.939L390.816 124.406L333.898 112.51Z" class="" fill="url(#delapouite-crystal-shrine-gradient-6)"></path><path d="M315.865 116.691L289.18 154.812L299.18 192.398L332.56 150.115L315.865 116.691Z" class="" fill="url(#delapouite-crystal-shrine-gradient-7)"></path><path d="M155.193 140.336L172.42 206.4L194.408 219.023L239.043 311L264.408 311L218.728 140.336L155.193 140.336Z" class="" fill="url(#delapouite-crystal-shrine-gradient-8)"></path><path d="M344.99 163.424L304.96 214.127L330.737 311L330.763 311L394.843 199.996L344.991 163.424Z" class="" fill="url(#delapouite-crystal-shrine-gradient-9)"></path><path d="M467.342 169.258C467.342 185.258 451.342 201.258 435.342 201.258C451.342 201.258 467.342 217.258 467.342 233.258C467.342 217.258 483.342 201.258 499.342 201.258C483.342 201.258 467.342 185.258 467.342 169.258Z" class="" fill="url(#delapouite-crystal-shrine-gradient-10)"></path><path d="M93.122 181.633L104.43 257.762L153.264 251.406L172.586 227.252L93.121 181.632Z" class="" fill="url(#delapouite-crystal-shrine-gradient-11)" filter="url(#shadow-11)"></path><path d="M440.117 235.426L387.57 248.598L351.547 311L377.317 311L396.477 291.52L440.117 235.426Z" class="" fill="url(#delapouite-crystal-shrine-gradient-12)"></path><path d="M184.907 240.67L167.504 262.42L193.274 311L219.035 311L184.906 240.67Z" class="" fill="url(#delapouite-crystal-shrine-gradient-13)"></path><path d="M151.067 269.844L112.062 274.918L148.145 311L172.896 311L151.066 269.844Z" class="" fill="url(#delapouite-crystal-shrine-gradient-14)"></path><path d="M59.697 281.24C59.697 297.24 43.697 313.24 27.697 313.24C43.697 313.24 59.697 329.24 59.697 345.24C59.697 329.24 75.697 313.24 91.697 313.24C75.697 313.24 59.697 297.24 59.697 281.24Z" class="" fill="url(#delapouite-crystal-shrine-gradient-15)" filter="url(#shadow-15)"></path><path d="M137 329L137 359L375 359L375 329L137 329Z" class="" fill="url(#delapouite-crystal-shrine-gradient-16)"></path><path d="M169 377L169 455L185 455L185 377L169 377Z" class="" fill="url(#delapouite-crystal-shrine-gradient-17)"></path><path d="M203 377L203 455L309 455L309 377L203 377Z" class="" fill="url(#delapouite-crystal-shrine-gradient-18)"></path><path d="M327 377L327 455L343 455L343 377L327 377Z" class="" fill="url(#delapouite-crystal-shrine-gradient-19)"></path><path d="M162.242 473L132.123 489L379.877 489L349.757 473L162.243 473Z" class="selected" fill="url(#delapouite-crystal-shrine-gradient-20)"></path></g></g></svg>