<svg xmlns="http://www.w3.org/2000/svg" viewBox="0 0 512 512" style="height: 512px; width: 512px;"><defs><filter id="shadow-1" height="300%" width="300%" x="-100%" y="-100%"><feFlood flood-color="rgba(241, 21, 12, 1)" result="flood"></feFlood><feComposite in="flood" in2="SourceGraphic" operator="atop" result="composite"></feComposite><feGaussianBlur in="composite" stdDeviation="2" result="blur"></feGaussianBlur><feOffset dx="0" dy="0" result="offset"></feOffset><feComposite in="SourceGraphic" in2="offset" operator="over"></feComposite></filter><linearGradient x1="0" x2="0" y1="0" y2="1" id="lorc-rock-gradient-1"><stop offset="0%" stop-color="#83230a" stop-opacity="1"></stop><stop offset="100%" stop-color="#252424" stop-opacity="1"></stop></linearGradient><linearGradient x1="0" x2="0" y1="0" y2="1" id="lorc-rock-gradient-2"><stop offset="0%" stop-color="#47260b" stop-opacity="1"></stop><stop offset="100%" stop-color="#63863e" stop-opacity="1"></stop></linearGradient><linearGradient x1="0" x2="1" y1="1" y2="0" id="lorc-rock-gradient-3"><stop offset="0%" stop-color="#231301" stop-opacity="1"></stop><stop offset="100%" stop-color="#8b450e" stop-opacity="1"></stop></linearGradient><linearGradient x1="0" x2="1" y1="0" y2="1" id="lorc-rock-gradient-6"><stop offset="0%" stop-color="#478801" stop-opacity="1"></stop><stop offset="100%" stop-color="#729f3d" stop-opacity="1"></stop></linearGradient><linearGradient x1="0" x2="1" y1="1" y2="0" id="lorc-rock-gradient-7"><stop offset="0%" stop-color="#ad7216" stop-opacity="1"></stop><stop offset="100%" stop-color="#efa567" stop-opacity="1"></stop></linearGradient><linearGradient x1="0" x2="1" y1="0" y2="1" id="lorc-rock-gradient-8"><stop offset="0%" stop-color="#f9f9f4" stop-opacity="1"></stop><stop offset="100%" stop-color="#f8e71c" stop-opacity="1"></stop></linearGradient><linearGradient x1="0" x2="1" y1="1" y2="0" id="lorc-rock-gradient-9"><stop offset="0%" stop-color="#f4b781" stop-opacity="1"></stop><stop offset="100%" stop-color="#bc6418" stop-opacity="1"></stop></linearGradient></defs><circle cx="256" cy="256" r="256" fill="#d41e1e" fill-opacity="0.01"></circle><g class="" transform="translate(9,1)" style=""><path d="M228.813 23L68.75 72.28 39.5 182.095l47.53-21.22 10.44-4.655 2.5 11.155 8.75 39.125 6.405 28.53-21.75-19.53-15.72-14.125-28.218 32.344 140.657 136 9.656-40.69 7.53-31.874 10.407 31.063 54.72 163.592L432.343 465.5l45.75-202.938-84.563-148.718L228.814 23zm-57.688 49.875l-27.813 39.906-3.25 73.44-27.187-88.94 58.25-24.405zm17.844 93.406l113.124 155.25L407 355.407l-107.375-.844-110.656-128v-60.28zM79.312 330.25l140.125 153.125-5.563-65.875-134.563-87.25z" fill="url(#lorc-rock-gradient-1)" transform="translate(51.2, 51.2) scale(0.8, 0.8) rotate(0, 256, 256) skewX(0) skewY(0)" filter="url(#shadow-1)"></path></g></svg>