<svg xmlns="http://www.w3.org/2000/svg" viewBox="0 0 512 512" style="height: 512px; width: 512px;"><defs><linearGradient x1="0" x2="1" y1="1" y2="0" id="lorc-flat-paw-print-gradient-2"><stop offset="0%" stop-color="#48baff" stop-opacity="1"></stop><stop offset="100%" stop-color="#417505" stop-opacity="1"></stop></linearGradient><linearGradient x1="0" x2="1" y1="0" y2="1" id="lorc-flat-paw-print-gradient-3"><stop offset="0%" stop-color="#417505" stop-opacity="1"></stop><stop offset="100%" stop-color="#519010" stop-opacity="1"></stop></linearGradient><linearGradient x1="0" x2="1" y1="0" y2="1" id="lorc-flat-paw-print-gradient-4"><stop offset="0%" stop-color="#417505" stop-opacity="1"></stop><stop offset="100%" stop-color="#4a90e2" stop-opacity="1"></stop></linearGradient><linearGradient x1="0" x2="1" y1="1" y2="0" id="lorc-flat-paw-print-gradient-5"><stop offset="0%" stop-color="#417505" stop-opacity="1"></stop><stop offset="100%" stop-color="#52623e" stop-opacity="1"></stop></linearGradient><linearGradient x1="0" x2="1" y1="0" y2="1" id="lorc-flat-paw-print-gradient-7"><stop offset="0%" stop-color="#50e3c2" stop-opacity="1"></stop><stop offset="100%" stop-color="#417505" stop-opacity="1"></stop></linearGradient><linearGradient x1="0" x2="1" y1="1" y2="0" id="lorc-flat-paw-print-gradient-8"><stop offset="0%" stop-color="#91b76a" stop-opacity="1"></stop><stop offset="100%" stop-color="#658149" stop-opacity="1"></stop></linearGradient><linearGradient id="lorc-flat-paw-print-gradient-9"><stop offset="0%" stop-color="#afa8a8" stop-opacity="0.31"></stop><stop offset="100%" stop-color="#417505" stop-opacity="1"></stop></linearGradient></defs><circle cx="256" cy="256" r="256" fill="#d41e1e" fill-opacity="0.01"></circle><g class="" transform="translate(1,-3)" style=""><path d="M314.78 19.47c-18.84 33-23.783 72.886 5.876 69.56 24.07-2.696 16.35-40.304-5.875-69.56zm-122.217 4c-17.095 33.8-19.95 73.854 9.5 69.218 23.9-3.764 14.227-40.983-9.5-69.22zm222.125 75.343c-21.958 30.365-30.705 69.304-.813 69.687 24.262.312 20.163-37.94.813-69.688zm-318.063 3.25C79.9 134.972 79 173.245 103.25 171.22c29.88-2.498 17.868-40.543-6.625-69.157zm217.594 8.374c-55.61 2.262-50.322 118.727 2.592 116.594 52.018-2.088 52.118-118.81-2.593-116.593zm-107.095 1.844c-.828.016-1.648.084-2.5.157-55.42 4.785-43.925 120.847 8.813 116.313 51.033-4.38 45.872-117.42-6.313-116.47zm-82.875 83.44c-1.612-.02-3.242.065-4.938.28-55.146 6.99-38.225 122.506 14.25 115.875 49.975-6.31 40.645-115.58-9.312-116.156zm278.625 1.343c-55.653-1.027-58.487 115.502-5.53 116.5 52.054.986 60.284-115.482 5.53-116.5zm-145 67.218c-57.02 1.258-12.988 60.186-113.78 94.44-78.123 26.548-30.808 106.533 36.06 106.81 36.702.154 49.8-28.817 79.845-28.686 34.116.144 36.844 26.134 86.78 26.344 63.76.263 100.665-80.2 27.72-107.532-92.875-34.798-54-90.786-113.813-91.375-.957-.008-1.907-.02-2.812 0z" fill="#4a4a4a" fill-opacity="1"></path></g></svg>