<svg xmlns="http://www.w3.org/2000/svg" viewBox="0 0 512 512" style="height: 512px; width: 512px;"><defs><linearGradient x1="0" x2="0" y1="0" y2="1" id="lorc-drink-me-gradient-1"><stop offset="0%" stop-color="#5a3517" stop-opacity="1"></stop><stop offset="100%" stop-color="#9e6c42" stop-opacity="1"></stop></linearGradient><linearGradient x1="0" x2="0" y1="0" y2="1" id="lorc-drink-me-gradient-2"><stop offset="0%" stop-color="#47260b" stop-opacity="1"></stop><stop offset="100%" stop-color="#d0021b" stop-opacity="1"></stop></linearGradient><linearGradient x1="0" x2="1" y1="1" y2="0" id="lorc-drink-me-gradient-3"><stop offset="0%" stop-color="#231301" stop-opacity="1"></stop><stop offset="100%" stop-color="#8b450e" stop-opacity="1"></stop></linearGradient><linearGradient x1="0" x2="1" y1="0" y2="1" id="lorc-drink-me-gradient-6"><stop offset="0%" stop-color="#c5061c" stop-opacity="1"></stop><stop offset="100%" stop-color="#cd727d" stop-opacity="1"></stop></linearGradient><linearGradient x1="0" x2="1" y1="1" y2="0" id="lorc-drink-me-gradient-7"><stop offset="0%" stop-color="#ad7216" stop-opacity="1"></stop><stop offset="100%" stop-color="#efa567" stop-opacity="1"></stop></linearGradient><linearGradient x1="0" x2="1" y1="0" y2="1" id="lorc-drink-me-gradient-8"><stop offset="0%" stop-color="#f9f9f4" stop-opacity="1"></stop><stop offset="100%" stop-color="#f8e71c" stop-opacity="1"></stop></linearGradient><linearGradient x1="0" x2="1" y1="1" y2="0" id="lorc-drink-me-gradient-9"><stop offset="0%" stop-color="#f4b781" stop-opacity="1"></stop><stop offset="100%" stop-color="#bc6418" stop-opacity="1"></stop></linearGradient></defs><circle cx="256" cy="256" r="256" fill="#d41e1e" fill-opacity="0.01"></circle><g class="" transform="translate(9,1)" style=""><g transform="translate(51.2, 51.2) scale(0.8, 0.8) rotate(0, 256, 256) skewX(0) skewY(0)"><path d="M367.844 24.188C364.849 24.258 361.928 24.596 359.156 25.218L343.72 56.657L337.406 52.22L327.312 45.125L323.219 56.75L306.405 104.438L305.185 107.906L305.218 108C282.304 143.49 251.075 166.155 216.468 183.094C173.971 203.894 126.585 215.496 85.218 230.188C62.985 238.083 48.7 254.658 42.498 274.468C36.296 294.278 37.376 317.08 43.092 340.125C54.522 386.215 84.482 433.888 121.717 460.063C158.95 486.237 213.934 498.306 261.185 493.469C284.81 491.049 306.637 484.349 323.185 471.811C339.732 459.273 350.525 440.217 350.435 416.624C350.263 372.729 345.142 324.231 350.341 277.218C354.641 238.328 365.707 200.728 392.247 166.748L393.527 165.685L409.277 152.842L409.277 243.812C395.81 248.197 385.952 260.882 385.841 275.717C385.329 280.324 385.591 285.455 386.871 291.217L386.903 291.341L386.933 291.466L409.31 408.776L477.028 386.276L454.154 266.526C451.924 255.431 446.464 249.366 439.279 245.809C435.896 244.133 432.039 243.099 427.969 242.746L427.969 137.625L432.719 133.75L442.279 125.97L432.187 118.875L427.03 115.25L451.406 90.062C451.406 59.137 403.181 23.35 367.844 24.188Z" class="" fill="url(#lorc-drink-me-gradient-2)"></path><path d="M336.75 74.594L411.344 127.064L409.874 128.25L409.281 128.25L409.281 128.75L384.939 148.563C354.374 144.223 336.473 130.063 325.345 106.906L336.751 74.594Z" class="selected" fill="url(#lorc-drink-me-gradient-3)"></path><path d="M315.062 126.656C327.49 145.294 345.996 158.713 370.5 164.844C346.55 199.544 335.908 237.55 331.75 275.156C331.583 276.668 331.43 278.176 331.28 279.686C324.66 275.649 315.082 271.608 303.344 268.126C276.388 260.126 238.094 254.969 195.814 254.969C153.532 254.969 115.268 260.125 88.314 268.124C76.608 271.597 67.057 275.629 60.438 279.654C65.236 264.66 74.48 253.814 91.468 247.78C131.468 233.576 179.761 221.896 224.688 199.906C258.508 183.353 290.548 160.642 315.063 126.656Z" class="" fill="#e9f3f3" fill-opacity="0.41"></path><path d="M419.656 260.876C428.111 260.876 434.75 267.512 434.75 275.969C434.75 284.422 428.11 291.093 419.656 291.093C411.202 291.093 404.531 284.423 404.531 275.968C404.531 267.513 411.203 260.873 419.657 260.873Z" class="" fill="#ffffff" fill-opacity="1"></path><path d="M57.062 301.75C57.262 301.894 57.417 302.04 57.625 302.188C64.2 306.801 74.835 311.594 88.313 315.594C115.268 323.594 153.533 328.75 195.813 328.75C238.093 328.75 276.388 323.594 303.343 315.594C314.163 312.384 323.099 308.667 329.625 304.938C329.367 312.018 329.273 319.07 329.281 326.063C323.116 328.803 316.229 331.253 308.657 333.5C279.217 342.237 239.592 347.438 195.813 347.438C152.035 347.438 112.411 342.238 82.97 333.5C73.952 330.824 65.883 327.86 58.875 324.47C57.529 316.566 56.922 308.936 57.062 301.75Z" class="" fill="url(#lorc-drink-me-gradient-6)"></path></g></g></svg>