<svg xmlns="http://www.w3.org/2000/svg" viewBox="0 0 512 512" style="height: 512px; width: 512px;"><defs><linearGradient x1="0" x2="1" y1="1" y2="0" id="delapouite-bo-gradient-1"><stop offset="0%" stop-color="#5a3517" stop-opacity="1"></stop><stop offset="100%" stop-color="#9e6c42" stop-opacity="1"></stop></linearGradient><linearGradient x1="0" x2="1" y1="0" y2="1" id="delapouite-bo-gradient-2"><stop offset="0%" stop-color="#8b572a" stop-opacity="1"></stop><stop offset="100%" stop-color="#4b2f17" stop-opacity="1"></stop></linearGradient><linearGradient x1="0" x2="1" y1="0" y2="1" id="delapouite-bo-gradient-3"><stop offset="0%" stop-color="#8b572a" stop-opacity="1"></stop><stop offset="100%" stop-color="#4b2f17" stop-opacity="1"></stop></linearGradient><linearGradient x1="0" x2="1" y1="0" y2="1" id="delapouite-bo-gradient-4"><stop offset="0%" stop-color="#9c7959" stop-opacity="1"></stop><stop offset="100%" stop-color="#866142" stop-opacity="1"></stop></linearGradient><linearGradient x1="0" x2="1" y1="0" y2="1" id="delapouite-bo-gradient-5"><stop offset="0%" stop-color="#8b572a" stop-opacity="1"></stop><stop offset="100%" stop-color="#4b2f17" stop-opacity="1"></stop></linearGradient><linearGradient x1="0" x2="1" y1="0" y2="1" id="delapouite-bo-gradient-6"><stop offset="0%" stop-color="#8b572a" stop-opacity="1"></stop><stop offset="100%" stop-color="#4b2f17" stop-opacity="1"></stop></linearGradient><linearGradient x1="0" x2="1" y1="0" y2="1" id="delapouite-bo-gradient-7"><stop offset="0%" stop-color="#8b572a" stop-opacity="1"></stop><stop offset="100%" stop-color="#4b2f17" stop-opacity="1"></stop></linearGradient><linearGradient x1="0" x2="1" y1="0" y2="1" id="delapouite-bo-gradient-8"><stop offset="0%" stop-color="#8b572a" stop-opacity="1"></stop><stop offset="100%" stop-color="#4b2f17" stop-opacity="1"></stop></linearGradient><linearGradient x1="0" x2="1" y1="0" y2="1" id="delapouite-bo-gradient-9"><stop offset="0%" stop-color="#8b572a" stop-opacity="1"></stop><stop offset="100%" stop-color="#4b2f17" stop-opacity="1"></stop></linearGradient></defs><path d="M0 0h512v512H0z" fill="#d41e1e" fill-opacity="0.01"></path><g class="" transform="translate(1,25)" style=""><path d="M473.79 38.21c-1.853-1.85-3.902-3.5-6.066-4.89l-5.703 10.304 2.416-12.152c-5.255-2.56-10.94-3.467-16.103-1.746l-.79.79c.696 7.73 4.943 16.09 11.396 22.544 6.453 6.454 14.814 10.7 22.545 11.396l.79-.79c2.827-8.484-1.415-18.384-8.486-25.455zm-41.087 7.145L277.92 200.14l6.71 6.71 40.306-40.306-31.498 49.112 18.423 18.424L466.645 79.297c-1.877-.724-3.712-1.558-5.5-2.488l-26.51 13.664 18.61-18.613c-2.49-1.847-4.845-3.884-7.032-6.072-5.808-5.807-10.56-12.777-13.51-20.433zm-167.51 167.512l-16.22 16.22 48.656 16.217-32.438-32.437zm20.46 47.42l-50.91-16.97-11.226 11.225 50.912 16.97 11.224-11.225zM260.2 285.743l-17.85-5.95-10.92 34.72 28.77-28.77zm-34.93-11.643l-15.98-5.328-11.88 11.88 19.628 19.63 8.232-26.182zm-6.513 53.13l-7.81-7.583-26.266-26.267L29.725 448.333c-3.395 10.185 3.4 22.4 13.044 29.324l61.006-61.006-53.14 65.167c4.35 1.522 8.86 1.847 13.03.457l155.09-155.044z" fill="url(#delapouite-bo-gradient-1)" transform="translate(51.2, 51.2) scale(0.8, 0.8) rotate(0, 256, 256) skewX(0) skewY(0)"></path></g></svg>